<?xml version="1.0" encoding="utf-8"?>
<!-- Generator: Adobe Illustrator 15.0.0, SVG Export Plug-In . SVG Version: 6.00 Build 0)  -->
<!DOCTYPE svg PUBLIC "-//W3C//DTD SVG 1.1//EN" "http://www.w3.org/Graphics/SVG/1.1/DTD/svg11.dtd">
<svg version="1.1" id="Calque_1" xmlns="http://www.w3.org/2000/svg" xmlns:xlink="http://www.w3.org/1999/xlink" x="0px" y="0px" width="80px" height="80px" viewBox="0 0 80 80" enable-background="new 0 0 80 80" xml:space="preserve">
	<path id="XMLID_3_" fill="#86144F" d="M61.683,49.041c-1.636-3.42-5.903-4.775-9.548-3.025c-3.647,1.74-6.288,6.398-4.664,9.811 c1.628,3.408,6.896,4.287,10.545,2.539C61.662,56.629,63.299,52.453,61.683,49.041"/>
	<path id="XMLID_4_" fill="#86144F" d="M77.568,41.48c-4.288-8.964-13.229-14.227-22.543-14.227c-3.602,0-7.281,0.792-10.736,2.44 c-3.443,1.647-6.367,3.997-8.625,6.796l8.671,7.036c1.24-1.549,2.831-2.826,4.763-3.748c1.933-0.916,3.942-1.347,5.916-1.347 c5.17,0,10.115,2.891,12.477,7.858c0.911,1.932,1.343,3.932,1.343,5.928c0,5.158-2.889,10.09-7.856,12.463 c-1.896,0.902-3.851,1.318-5.804,1.346v11.162c3.566-0.01,7.205-0.801,10.612-2.438C74.753,70.471,80.011,61.529,80,52.215 C79.996,48.613,79.207,44.93,77.568,41.48"/>
	<path id="XMLID_5_" fill="#706A7F" d="M32.48,24.074c-1.628-3.412-6.897-4.291-10.544-2.551c-3.646,1.748-5.285,5.926-3.658,9.333 c1.625,3.41,5.894,4.765,9.54,3.027C31.463,32.132,34.107,27.48,32.48,24.074"/>
	<path id="XMLID_6_" fill="#706A7F" d="M35.673,36.477c-1.253,1.547-2.844,2.833-4.773,3.75c-1.933,0.924-3.941,1.354-5.927,1.354 c-5.16-0.014-10.093-2.901-12.463-7.857c-0.916-1.941-1.344-3.94-1.344-5.928c0-5.159,2.889-10.102,7.857-12.462 c1.896-0.903,3.859-1.332,5.824-1.354L24.838,2.812c-3.567,0.012-7.205,0.813-10.613,2.44C5.25,9.529-0.011,18.484,0,27.795 c0,3.599,0.79,7.27,2.438,10.725c4.279,8.963,13.211,14.225,22.523,14.225h0.011c3.612,0,7.281-0.793,10.734-2.438c3.444-1.65,6.368-3.996,8.637-6.799L35.673,36.477z"/>
</svg>
